<svg xmlns="http://www.w3.org/2000/svg" width="33" height="26" fill="none" viewBox="0 0 33 26">
  <path fill="#fff" fill-rule="evenodd" d="M13.632.688 3.608 4.005c-1.302.431-1.742.685-2.175 1.051A3.355 3.355 0 0 0 .47 6.391C.259 6.917.156 7.415.156 8.788v14.978c0 .668.069.91.2 1.154.13.244.321.435.565.566.244.13.485.2 1.152.2H30.9c.667 0 .909-.07 1.152-.2a1.36 1.36 0 0 0 .566-.566c.13-.244.2-.486.2-1.154V8.755c0-1.364-.101-1.858-.31-2.381a3.353 3.353 0 0 0-.95-1.33c-.426-.366-.86-.622-2.15-1.063L19.884.72C18.543.26 18.08.14 17.546.06a5.354 5.354 0 0 0-1.568-.007c-.536.074-1 .189-2.346.634ZM2.65 23.19h8.268V10.56a1 1 0 0 1 1-1h9.138a1 1 0 0 1 1 1v12.63h8.269V8.755c0-.967-.036-1.214-.133-1.458a.862.862 0 0 0-.255-.358c-.2-.171-.421-.284-1.336-.597l-9.522-3.26c-1.14-.39-1.512-.494-1.9-.552a2.867 2.867 0 0 0-.858-.004c-.388.054-.761.153-1.905.532L4.39 6.375c-.923.305-1.146.417-1.349.588a.863.863 0 0 0-.259.359c-.099.246-.134.493-.134 1.466V23.19Z" clip-rule="evenodd"/>
</svg>
